<svg xmlns="http://www.w3.org/2000/svg" viewBox="0 0 62.7 59.75"><defs><style>.cls-1{fill:#912e3f;fill-rule:evenodd;}</style></defs><title>fdfFichier 1</title><g id="Calque_2" data-name="Calque 2"><g id="Calque_1-2" data-name="Calque 1"><path class="cls-1" d="M35.1,19.62v5.28c1-1.11,1.79-2.1,2.7-2.93,7.43-6.81,20.27-3.45,23.52,6.27A26.74,26.74,0,0,1,62.61,36c.17,7.61.06,15.23.06,22.85,0,.26,0,.51,0,.86H49.33c0-.53-.07-1-.07-1.54,0-6.57,0-13.14,0-19.71a21.67,21.67,0,0,0-.61-4.62,5.55,5.55,0,0,0-4.47-4.57,7,7,0,0,0-7,2.15,8,8,0,0,0-2,5.61c0,7,0,14,0,21v1.66H21.77V19.62Z"/><path class="cls-1" d="M14.13,19.62V59.75H.87V19.62Z"/><path class="cls-1" d="M6.27,13.89a6.52,6.52,0,0,1-5.65-4,7,7,0,0,1,1.2-7.53,8.54,8.54,0,0,1,10-1.24,7,7,0,0,1,2.86,8.3C13.69,12.19,11,13.89,6.27,13.89Z"/></g></g></svg>