<svg xmlns="http://www.w3.org/2000/svg" viewBox="0 0 42.75 82.68"><defs><style>.cls-1{fill:#912e3f;fill-rule:evenodd;}</style></defs><title>Fichier 1</title><g id="Calque_2" data-name="Calque 2"><g id="Calque_1-2" data-name="Calque 1"><path class="cls-1" d="M27.73,30.33H42.29c-.38,3-.73,5.8-1.09,8.62-.2,1.58-.44,3.15-.61,4.73-.1,1-.49,1.34-1.51,1.32-3.13-.07-6.26,0-9.39,0H27.77v37.7H12.62V45H0V30.3H12.59c0-2.76-.06-5.34,0-7.93a53.5,53.5,0,0,1,.51-8.23c1.46-7.8,7.05-12.86,15-13.84A63.88,63.88,0,0,1,42.75.63V13.71H35.87c-6.38,0-8.1,1.74-8.13,8.13C27.72,24.59,27.73,27.34,27.73,30.33Z"/></g></g></svg>