<svg xmlns="http://www.w3.org/2000/svg" viewBox="0 0 86.19 71.2"><defs><style>.cls-1{fill:#912e3f;fill-rule:evenodd;}</style></defs><title>twFichier 1</title><g id="Calque_2" data-name="Calque 2"><g id="Calque_1-2" data-name="Calque 1"><path class="cls-1" d="M77.1,11.37,86.19,9a32.26,32.26,0,0,1-7.37,7.81,2.8,2.8,0,0,0-1.2,2.53c-.17,17.78-7.34,32.21-21.54,42.79C46.2,69.47,34.67,71.89,22.45,71a48.33,48.33,0,0,1-19.8-5.76A16,16,0,0,1,0,63.53c9.3.38,17.76-1.75,25.48-7.73C17.39,55,11.93,51,8.84,43.35h7.39l.15-.44C7.89,40.16,3.15,34.51,2.52,25.49l7.41,2C2.3,19,.4,9.89,5.25,3.6,14.92,14.82,27.06,21.12,42,22.14c0-2.5-.31-4.89.06-7.17A16.78,16.78,0,0,1,53.5,1.2,17,17,0,0,1,71.43,4.56a2.93,2.93,0,0,0,3.3.74c2.5-.92,5-1.87,7.46-2.82.47-.18.91-.41,1.68-.77-1.23,4.17-3.83,6.88-7,9.19Z"/></g></g></svg>