<?xml version="1.0" encoding="UTF-8"?>
<svg width="125px" height="60px" viewBox="0 0 125 60" version="1.1" xmlns="http://www.w3.org/2000/svg" xmlns:xlink="http://www.w3.org/1999/xlink">
    <!-- Generator: Sketch 45.1 (43504) - http://www.bohemiancoding.com/sketch -->
    <title>LOGO_PME_NEW_FINAL_LOGO PME</title>
    <desc>Created with Sketch.</desc>
    <defs></defs>
    <g id="Symbols" stroke="none" stroke-width="1" fill="none" fill-rule="evenodd">
        <g id="Header" transform="translate(-577.000000, -25.000000)" fill-rule="nonzero">
            <g id="LOGO_PME_NEW_FINAL_LOGO-PME" transform="translate(577.000000, 25.000000)">
                <rect id="Rectangle-path" fill="#912E3F" x="0" y="0" width="124.962762" height="59.6515627"></rect>
                <path d="M22.7387149,44.4256391 L7.11210908,44.4256391 L7.11210908,43.8747011 C7.71313238,43.8246158 8.41432623,43.7745305 8.96526426,43.4740189 C9.66645811,43.1234219 10.2173961,42.772825 10.6180783,41.7711195 C11.1189311,40.5189876 11.2191016,38.6658324 11.2191016,36.1615687 L11.2191016,15.5765206 C11.2191016,13.0722568 11.1189311,11.2191016 10.5179078,9.96696976 C10.1172256,9.11552008 9.56628756,8.61466733 8.81500843,8.26407041 C8.36424096,8.11381458 7.81330293,7.96355875 7.0620238,7.91347348 L7.0620238,7.31245018 L24.7421259,7.31245018 C33.0061963,7.31245018 38.3653208,10.017055 38.3653208,16.6283114 C38.3653208,20.6852187 36.4620803,23.3898235 33.857646,25.0426376 C31.7039792,26.3448547 28.1980099,27.3966455 22.4382033,27.3966455 C21.6368389,27.3966455 18.9823193,27.2463897 18.381296,27.1462192 L18.381296,36.1114834 C18.381296,38.6157472 18.5315518,40.4689024 19.0824898,41.6208637 C19.4330868,42.5223986 20.0341101,43.0232514 20.8855598,43.3738483 C21.3864125,43.6242747 22.1376916,43.7244452 22.7387149,43.7745305 L22.7387149,44.4256391 Z M18.4313813,25.8940873 C19.0324046,26.0443431 21.83718,26.2446842 22.5383738,26.2446842 C26.4450253,26.2446842 28.6988627,25.0927229 29.7506535,23.4399088 C30.8024442,21.9874358 31.1029559,18.932234 31.1029559,16.928823 C31.1029559,10.5679931 28.2981805,8.46441151 23.8906763,8.46441151 L21.1359861,8.41432623 C19.9840248,8.41432623 19.3329162,8.56458206 18.8821487,9.01534953 C18.4313813,9.61637284 18.4313813,10.5179078 18.4313813,11.8201249 L18.4313813,25.8940873 L18.4313813,25.8940873 Z" id="Shape" fill="#FFFFFF"></path>
                <path d="M84.2434329,7.91347348 C83.6424096,7.96355875 82.8911304,8.0637293 82.3401924,8.31415568 C81.7892544,8.66475261 81.0880605,9.11552008 80.6873783,10.017055 C80.1865256,11.2191016 80.086355,13.2725979 80.086355,16.377885 L80.086355,35.3602043 C80.086355,38.1649797 80.1865256,40.4188171 80.6873783,41.7210342 C81.0880605,42.5223986 81.6890838,43.0733367 82.5906188,43.4239336 C82.991301,43.5741894 83.5923243,43.7244452 84.2434329,43.7745305 L84.2434329,44.3755538 L68.6669123,44.3755538 L68.6669123,43.7745305 C69.2679356,43.7244452 69.9691294,43.6242747 70.4198969,43.4239336 C71.2212613,43.1234219 71.9224552,42.5724839 72.2730521,41.7210342 C72.7739048,40.4188171 72.9742459,38.1649797 72.9742459,35.3602043 L72.9742459,12.5714041 L72.6737343,12.5714041 L60.0522449,44.6259802 L57.9987487,44.6259802 L44.7261507,12.4211482 L44.4256391,12.4211482 L44.4256391,36.6624214 C44.4256391,39.3670263 44.776236,40.7193287 45.2770888,41.670949 C45.8781121,42.6225692 46.5292206,43.1735072 47.3806703,43.4239336 C47.9316084,43.67436 48.3322906,43.7244452 49.0334844,43.7745305 L49.0334844,44.3755538 L38.6658324,44.3755538 L38.6658324,43.7745305 C39.2167705,43.7244452 39.6675379,43.67436 40.1683907,43.4740189 C41.0198404,43.2235925 41.670949,42.6726545 42.2719723,41.7210342 C42.772825,40.7193287 43.1735072,39.3670263 43.1735072,36.6624214 L43.1735072,16.1274586 C43.1735072,13.1724274 43.0232514,11.5196133 42.4222281,10.2173961 C41.9714606,9.01534953 41.2201815,8.56458206 40.5189876,8.31415568 C39.9680496,8.0637293 39.316941,8.01364403 38.7159177,7.96355875 L38.7159177,7.36253545 L50.3857868,7.36253545 L61.8052296,35.2600337 L62.0055707,35.2600337 L73.2246723,7.36253545 L84.2434329,7.36253545 L84.2434329,7.91347348 L84.2434329,7.91347348 Z" id="Shape" fill="#FFFFFF"></path>
                <path d="M116.798862,44.4256391 L86.7977819,44.4256391 L86.7977819,43.8747011 C87.3988052,43.8246158 88.0499138,43.7745305 88.5006813,43.5241041 C89.2519604,43.2235925 89.9531542,42.6225692 90.3037512,41.8712901 C90.9047745,40.5690729 91.004945,38.215065 91.004945,35.4603748 L91.004945,16.3277997 C91.004945,13.5230243 90.9047745,11.3192722 90.4039217,9.96696976 C90.0032395,9.11552008 89.4022162,8.61466733 88.6008518,8.21398513 C88.0499138,7.96355875 87.4488905,7.91347348 86.8478672,7.8633882 L86.8478672,7.31245018 L115.346389,7.31245018 L116.648606,17.6300169 L116.047583,17.6300169 C114.745365,15.0756678 112.842125,12.1206366 110.888799,10.367652 C109.837008,9.36594646 108.284365,8.46441151 105.830186,8.46441151 L101.823364,8.46441151 C100.921829,8.46441151 100.020295,8.51449678 99.5194418,9.06543481 C98.1170541,9.96696976 98.2172246,12.2708924 98.2172246,13.9237065 L98.2172246,24.5417848 L102.324217,24.5417848 C104.427799,24.5417848 105.529675,24.1411026 106.481295,23.2395677 C107.733427,21.9874358 108.384536,19.9339395 108.735132,18.3312107 L109.28607,18.3312107 L109.28607,32.0044908 L108.685047,32.0044908 C108.284365,30.3516768 107.733427,28.398351 106.43121,27.0961339 C105.529675,26.1945989 104.327628,25.7438314 102.274132,25.7438314 L98.1671394,25.7438314 L98.1671394,36.8627625 C98.1671394,38.8160883 98.0669688,41.320352 99.4192712,42.3721428 C100.020295,42.9731661 101.222341,43.2736778 102.524558,43.2736778 L106.080613,43.2736778 C109.035644,43.2736778 110.788629,42.3721428 112.341272,40.6692435 C114.645195,38.4654913 116.298009,35.3602043 117.550141,32.9561111 L118.050994,32.9561111 L116.798862,44.4256391 Z" id="Shape" fill="#FFFFFF"></path>
                <path d="M11.2191016,47.8314378 L12.4211482,47.8314378 L13.3727685,50.5360427 C13.5230243,50.9367249 13.5731096,51.1871512 13.5731096,51.1871512 L13.5731096,51.1871512 C13.5731096,51.1871512 13.6231949,50.9367249 13.7734507,50.5360427 L14.7250709,47.8314378 L15.9271175,47.8314378 L15.9271175,52.3391126 L15.1257531,52.3391126 L15.1257531,48.6828875 L15.1257531,48.6828875 C15.1257531,48.6828875 15.0255826,49.0334844 14.8753267,49.5343372 L13.9237065,52.2890273 L13.2725979,52.2890273 L12.3209777,49.5343372 C12.1206366,49.0334844 12.0705513,48.6828875 12.0705513,48.6828875 L12.0705513,48.6828875 L12.0705513,52.3391126 L11.3192722,52.3391126 L11.3192722,47.8314378 L11.2191016,47.8314378 Z" id="Shape" fill="#FFFFFF"></path>
                <path d="M29.8007387,51.1871512 L28.0978394,51.1871512 L27.6971572,52.2890273 L26.8957928,52.2890273 L28.4985216,47.7813525 L29.4501418,47.7813525 L31.0528706,52.2890273 L30.2014209,52.2890273 L29.8007387,51.1871512 Z M28.748948,49.1837402 L28.2981805,50.5861279 L29.6003976,50.5861279 L29.1496302,49.1837402 C29.0494596,48.8331433 28.9993743,48.5827169 28.9993743,48.5827169 L28.9993743,48.5827169 C28.9492891,48.5827169 28.8491185,48.8331433 28.748948,49.1837402 Z" id="Shape" fill="#FFFFFF"></path>
                <path d="M42.6726545,50.0852752 C42.6726545,51.2873218 43.1234219,51.7881745 43.8747011,51.7881745 C44.5758949,51.7881745 44.9765771,51.3874923 45.0266624,50.6362132 L45.0266624,50.5360427 L43.8747011,50.5360427 L43.8747011,49.9350194 L45.7779415,49.9350194 L45.7779415,52.2890273 L45.1268329,52.2890273 L45.1268329,51.688004 L45.1268329,51.688004 C44.9264918,52.0886862 44.4757244,52.3891978 43.7745305,52.3891978 C42.5223986,52.3891978 41.8212048,51.5377482 41.8212048,50.0852752 C41.8212048,48.6328022 42.6726545,47.7312673 43.9247863,47.7312673 C44.9264918,47.7312673 45.6276857,48.23212 45.7278562,49.0835697 L44.8764066,49.0835697 C44.8263213,48.6328022 44.4256391,48.3322906 43.9247863,48.3322906 C43.1234219,48.3823758 42.6726545,48.9833991 42.6726545,50.0852752 Z" id="Shape" fill="#FFFFFF"></path>
                <path d="M59.9019891,51.1871512 L58.1990898,51.1871512 L57.7984076,52.2890273 L56.9970432,52.2890273 L58.599772,47.7813525 L59.5513922,47.7813525 L61.154121,52.2890273 L60.3026713,52.2890273 L59.9019891,51.1871512 Z M58.9002836,49.1837402 L58.4495161,50.5861279 L59.7517333,50.5861279 L59.3009658,49.1837402 C59.2007953,48.8331433 59.15071,48.5827169 59.15071,48.5827169 L59.15071,48.5827169 C59.0505394,48.5827169 59.0004542,48.8331433 58.9002836,49.1837402 Z" id="Shape" fill="#FFFFFF"></path>
                <polygon id="Shape" fill="#FFFFFF" points="71.8723699 47.8314378 75.1279128 47.8314378 75.1279128 48.4324611 72.7739048 51.688004 75.1779981 51.688004 75.1779981 52.3391126 71.7721993 52.3391126 71.7721993 51.7380893 74.1262073 48.4825464 71.8723699 48.4825464"></polygon>
                <polygon id="Shape" fill="#FFFFFF" points="85.0948825 47.8314378 85.8962469 47.8314378 85.8962469 52.3391126 85.0948825 52.3391126"></polygon>
                <path d="M96.7146664,47.8314378 L97.6662866,47.8314378 L99.3191007,50.5861279 C99.5194418,50.9367249 99.6196123,51.1871512 99.6196123,51.1871512 L99.6196123,51.1871512 L99.6196123,47.8314378 L100.370891,47.8314378 L100.370891,52.3391126 L99.4693565,52.3391126 L97.8165424,49.5343372 C97.6162013,49.1837402 97.5160308,48.9333139 97.5160308,48.9333139 L97.5160308,48.9333139 L97.5160308,52.3391126 L96.7647517,52.3391126 L96.7647517,47.8314378 L96.7146664,47.8314378 Z" id="Shape" fill="#FFFFFF"></path>
                <polygon id="Shape" fill="#FFFFFF" points="111.239396 47.8314378 114.194427 47.8314378 114.194427 48.4825464 112.090846 48.4825464 112.090846 49.7847635 114.044172 49.7847635 114.044172 50.4358721 112.090846 50.4358721 112.090846 51.7380893 114.244513 51.7380893 114.244513 52.3891978 111.239396 52.3891978 111.239396 47.8314378"></polygon>
            </g>
        </g>
    </g>
</svg>