<?xml version="1.0" encoding="UTF-8"?>
<svg width="15px" height="9px" viewBox="0 0 15 9" version="1.1" xmlns="http://www.w3.org/2000/svg" xmlns:xlink="http://www.w3.org/1999/xlink">
    <!-- Generator: Sketch 45.1 (43504) - http://www.bohemiancoding.com/sketch -->
    <title>Shape</title>
    <desc>Created with Sketch.</desc>
    <defs></defs>
    <g id="Page-1" stroke="none" stroke-width="1" fill="none" fill-rule="evenodd">
        <g id="Desktop-homepage" transform="translate(-664.000000, -1537.000000)" fill-rule="nonzero" fill="#912E3F">
            <path d="M664.501452,1545.84248 L674.139828,1545.84248 C674.272098,1545.84261 674.398999,1545.79017 674.492593,1545.69671 L678.413832,1541.77547 C678.609186,1541.57972 678.609186,1541.26277 678.413832,1541.06702 L674.495509,1537.14578 C674.401201,1537.0516 674.273107,1536.9991 674.139828,1537.00001 L664.501452,1537.00001 C664.224508,1537.00001 664,1537.22452 664,1537.50146 L664,1545.34394 C664.001604,1545.61975 664.225642,1545.84248 664.501452,1545.84248 Z M674.658772,1540.16033 C675.354353,1540.16033 675.918233,1540.72421 675.918233,1541.41979 C675.918233,1542.11537 675.354353,1542.67925 674.658772,1542.67925 C673.963191,1542.67925 673.399311,1542.11537 673.399311,1541.41979 C673.399311,1540.72421 673.963191,1540.16033 674.658772,1540.16033 L674.658772,1540.16033 Z" id="Shape"></path>
        </g>
    </g>
</svg>